<?xml version="1.0" standalone="no"?>
<!DOCTYPE svg PUBLIC "-//W3C//DTD SVG 1.1//EN" "http://www.w3.org/Graphics/SVG/1.1/DTD/svg11.dtd" >
<svg xmlns="http://www.w3.org/2000/svg">
<metadata>Generated by IcoMoon</metadata>
<defs>
<font id="iwmenuicons" horiz-adv-x="1024">
<font-face units-per-em="1024" ascent="896" descent="-128" />
<missing-glyph horiz-adv-x="1024" />
<glyph unicode="&#x20;" horiz-adv-x="400" d="" />
<glyph unicode="&#xe900;" glyph-name="angle-down-lt" d="M1013.643 596.545c13.509 13.509 13.509 36.025 0 49.984l-0.901 0.901c-13.509 13.509-36.025 13.509-49.984 0l-451.208-450.758-450.308 450.308c-13.509 13.509-36.025 13.509-49.984 0l-0.901-0.901c-13.509-13.509-13.509-36.025 0-49.984l475.525-475.525c9.006-9.006 22.065-12.158 33.773-9.006 6.755 1.351 13.059 4.503 18.463 9.456l475.525 475.525z" />
<glyph unicode="&#xe901;" glyph-name="angle-left-lt" d="M724.545-117.643c13.509-13.509 36.025-13.509 49.984 0l0.901 0.901c13.509 13.509 13.509 36.025 0 49.984l-450.758 451.208 450.308 450.308c13.509 13.509 13.509 36.025 0 49.984l-0.901 0.901c-13.509 13.509-36.025 13.509-49.984 0l-475.525-475.525c-9.006-9.006-12.158-22.065-9.006-33.773 1.351-6.755 4.503-13.059 9.456-18.463l475.525-475.525z" />
<glyph unicode="&#xe902;" glyph-name="angle-right-lt" d="M299.455 885.643c-13.509 13.509-36.025 13.509-49.984 0l-0.901-0.901c-13.509-13.509-13.509-36.025 0-49.984l450.758-450.758-450.308-450.308c-13.509-13.509-13.509-36.025 0-49.984l0.901-0.901c13.509-13.509 36.025-13.509 49.984 0l475.525 475.525c9.006 9.006 12.158 22.065 9.006 33.773-1.351 6.755-4.503 13.059-9.456 18.463l-475.525 475.075z" />
<glyph unicode="&#xe903;" glyph-name="angle-up-lt" d="M10.357 171.455c-13.509-13.509-13.509-36.025 0-49.984l0.901-0.901c13.509-13.509 36.025-13.509 49.984 0l450.758 450.758 450.308-450.308c13.509-13.509 36.025-13.509 49.984 0l0.901 0.901c13.509 13.509 13.509 36.025 0 49.984l-475.075 475.525c-9.006 9.006-22.065 12.158-33.773 9.006-6.755-1.351-13.059-4.503-18.463-9.456l-475.525-475.525z" />
<glyph unicode="&#xe904;" glyph-name="close-lt" d="M1013.643-66.758l-451.208 451.208 450.308 450.308c13.509 13.509 13.509 36.025 0 49.984l-0.901 0.901c-13.509 13.509-36.025 13.509-49.984 0l-450.308-450.308-450.308 450.308c-13.509 13.509-36.025 13.509-49.984 0l-0.901-0.901c-13.509-13.509-13.509-36.025 0-49.984l450.758-450.758-450.308-450.308c-13.509-13.509-13.509-36.025 0-49.984l0.901-0.901c13.509-13.509 36.025-13.509 49.984 0l450.308 450.308 450.308-450.308c13.509-13.509 36.025-13.509 49.984 0l0.901 0.901c13.96 13.509 13.96 36.025 0.45 49.534z" />
<glyph unicode="&#xe905;" glyph-name="menu-lt" d="M993.829 760.908h-960.957c-14.41 0-26.118-11.708-26.118-26.118v-19.363c0-14.41 11.708-26.118 26.118-26.118h960.507c14.41 0 26.118 11.708 26.118 26.118v19.363c0.45 14.41-11.258 26.118-25.668 26.118zM993.829 418.674h-960.957c-14.41 0-26.118-11.708-26.118-26.118v-19.363c0-14.41 11.708-26.118 26.118-26.118h960.507c14.41 0 26.118 11.708 26.118 26.118v19.363c0.45 14.41-11.258 26.118-25.668 26.118zM993.829 76.44h-960.957c-14.41 0-26.118-11.708-26.118-26.118v-19.363c0-14.41 11.708-26.118 26.118-26.118h960.507c14.41 0 26.118 11.708 26.118 26.118v19.363c0.45 14.41-11.258 26.118-25.668 26.118z" />
<glyph unicode="&#xe906;" glyph-name="triangle-down" d="M896 704l-384-640-384 640z" />
<glyph unicode="&#xe907;" glyph-name="triangle-left" d="M832 0l-640 384 640 384z" />
<glyph unicode="&#xe908;" glyph-name="triangle-right" d="M192 768l640-384-640-384z" />
<glyph unicode="&#xe909;" glyph-name="triangle-up" d="M128 64l384 640 384-640z" />
<glyph unicode="&#xe90a;" glyph-name="arrow-down" d="M877.254 274.746l-320-320c-24.992-24.994-65.514-24.994-90.508 0l-320 320c-24.994 24.994-24.994 65.516 0 90.51 24.994 24.996 65.516 24.996 90.51 0l210.744-210.746v613.49c0 35.346 28.654 64 64 64s64-28.654 64-64v-613.49l210.746 210.746c12.496 12.496 28.876 18.744 45.254 18.744s32.758-6.248 45.254-18.746c24.994-24.994 24.994-65.514 0-90.508z" />
<glyph unicode="&#xe90b;" glyph-name="arrow-left" d="M402.746 18.746l-320 320c-24.994 24.992-24.994 65.516 0 90.51l320 320c24.994 24.992 65.516 24.992 90.51 0 24.994-24.994 24.994-65.516 0-90.51l-210.746-210.746h613.49c35.346 0 64-28.654 64-64s-28.654-64-64-64h-613.49l210.746-210.746c12.496-12.496 18.744-28.876 18.744-45.254s-6.248-32.758-18.744-45.254c-24.994-24.994-65.516-24.994-90.51 0z" />
<glyph unicode="&#xe90c;" glyph-name="arrow-right" d="M621.254 18.746l320 320c24.994 24.992 24.994 65.516 0 90.51l-320 320c-24.994 24.992-65.516 24.992-90.51 0-24.994-24.994-24.994-65.516 0-90.51l210.746-210.746h-613.49c-35.346 0-64-28.654-64-64s28.654-64 64-64h613.49l-210.746-210.746c-12.496-12.496-18.744-28.876-18.744-45.254s6.248-32.758 18.744-45.254c24.994-24.994 65.516-24.994 90.51 0z" />
<glyph unicode="&#xe90d;" glyph-name="arrow-up" d="M877.254 493.254l-320 320c-24.992 24.994-65.514 24.994-90.508 0l-320-320c-24.994-24.994-24.994-65.516 0-90.51 24.994-24.996 65.516-24.996 90.51 0l210.744 210.746v-613.49c0-35.346 28.654-64 64-64s64 28.654 64 64v613.49l210.746-210.746c12.496-12.496 28.876-18.744 45.254-18.744s32.758 6.248 45.254 18.746c24.994 24.994 24.994 65.514 0 90.508z" />
<glyph unicode="&#xe90e;" glyph-name="arrow-down-lt" d="M165.713 208.38c-13.059 13.059-13.059 34.674 0 47.733l3.152 3.152c13.059 13.059 34.674 13.059 47.733 0l260.728-263.43v865.942c0 18.463 15.31 33.773 33.773 33.773h4.503c18.463 0 33.773-15.31 33.773-33.773v-866.843l263.88 263.88c13.059 13.059 34.674 13.059 47.733 0l3.152-3.152c13.059-13.059 13.059-34.674 0-47.733l-326.023-326.023c-6.755-6.755-15.761-9.907-24.767-9.907-9.006-0.45-18.012 3.152-24.767 9.907l-322.871 326.473z" />
<glyph unicode="&#xe90f;" glyph-name="arrow-left-lt" d="M336.38 730.287c13.059 13.059 34.674 13.059 47.733 0l3.152-3.152c13.059-13.059 13.059-34.674 0-47.733l-263.43-260.728h865.942c18.463 0 33.773-15.31 33.773-33.773v-4.503c0-18.463-15.31-33.773-33.773-33.773h-866.843l263.88-263.88c13.059-13.059 13.059-34.674 0-47.733l-3.152-3.152c-13.059-13.059-34.674-13.059-47.733 0l-326.023 326.023c-6.755 6.755-9.907 15.761-9.907 24.767-0.45 9.006 3.152 18.012 9.907 24.767l326.473 322.871z" />
<glyph unicode="&#xe910;" glyph-name="arrow-right-lt" d="M687.17 730.287c-13.059 13.059-34.674 13.059-47.733 0l-3.152-3.152c-13.059-13.059-13.059-34.674 0-47.733l263.43-260.728h-865.942c-18.463 0-33.773-15.31-33.773-33.773v-4.503c0-18.463 15.31-33.773 33.773-33.773h867.293l-263.88-263.88c-13.059-13.059-13.059-34.674 0-47.733l3.152-3.152c13.059-13.059 34.674-13.059 47.733 0l326.023 326.023c6.755 6.755 9.907 15.761 9.907 24.767 0.45 9.006-3.152 18.012-9.907 24.767l-326.923 322.871z" />
<glyph unicode="&#xe911;" glyph-name="arrow-up-lt" d="M858.287 559.62c13.059-13.059 13.059-34.674 0-47.733l-3.152-3.152c-13.059-13.059-34.674-13.059-47.733 0l-260.728 263.43v-865.942c0-18.463-15.31-33.773-33.773-33.773h-4.503c-18.463 0-33.773 15.31-33.773 33.773v866.843l-263.88-263.88c-13.059-13.059-34.674-13.059-47.733 0l-3.152 3.152c-13.059 13.059-13.059 34.674 0 47.733l326.023 326.023c6.755 6.755 15.761 9.907 24.767 9.907 9.006 0.45 18.012-3.152 24.767-9.907l322.871-326.473z" />
<glyph unicode="&#xe912;" glyph-name="search" d="M1004.8-19.2l-198.72 198.72c56.192 74.944 89.92 167.616 89.92 268.48 0 247.424-200.576 448-448 448s-448-200.576-448-448 200.576-448 448-448c100.864 0 193.536 33.728 268.416 89.92l198.784-198.72c11.776-11.776 24.32-19.2 44.8-19.2 35.392 0 64 28.608 64 64 0 14.016-3.456 29.056-19.2 44.8zM128 448c0 176.768 143.232 320 320 320s320-143.232 320-320-143.232-320-320-320-320 143.232-320 320z" />
<glyph unicode="&#xe913;" glyph-name="thumb" d="M208 448h-160c-26.51 0-48-21.49-48-48v-480c0-26.51 21.49-48 48-48h160c26.51 0 48 21.49 48 48v480c0 26.51-21.49 48-48 48zM128-48c-26.51 0-48 21.49-48 48s21.49 48 48 48 48-21.49 48-48-21.49-48-48-48zM768 733.096c0-84.832-51.94-132.416-66.554-189.096h203.446c66.794 0 118.794-55.492 119.106-116.196 0.168-35.876-15.092-74.498-38.878-98.394l-0.22-0.22c19.672-46.674 16.474-112.074-18.616-158.938 17.362-51.79-0.138-115.408-32.764-149.514 8.596-35.196 4.488-65.15-12.296-89.264-40.82-58.648-141.992-59.474-227.546-59.474l-5.69 0.002c-96.574 0.034-175.612 35.196-239.12 63.45-31.914 14.198-73.642 31.774-105.302 32.356-13.080 0.24-23.566 10.914-23.566 23.996v427.54c0 6.4 2.564 12.542 7.116 17.042 79.228 78.288 113.296 161.174 178.234 226.222 29.608 29.664 40.376 74.472 50.786 117.804 8.894 37.002 27.498 115.588 67.864 115.588 48 0 144-16 144-162.904z" />
<glyph unicode="&#xe914;" glyph-name="comments" horiz-adv-x="1152" d="M1088-5.166c0-45.5 26.028-84.908 64-104.184v-15.938c-10.626-1.454-21.472-2.224-32.5-2.224-68.008 0-129.348 28.528-172.722 74.264-26.222-6.982-54.002-10.752-82.778-10.752-159.058 0-288 114.616-288 256s128.942 256 288 256c159.058 0 288-114.616 288-256 0-55.348-19.764-106.592-53.356-148.466-6.824-14.824-10.644-31.312-10.644-48.7zM512 896c278.458 0 504.992-180.614 511.836-405.52-49.182 21.92-103.586 33.52-159.836 33.52-95.56 0-185.816-33.446-254.138-94.178-70.846-62.972-109.862-147.434-109.862-237.822 0-44.672 9.544-87.888 27.736-127.788-5.228-0.126-10.468-0.212-15.736-0.212-27.156 0-53.81 1.734-79.824 5.044-109.978-109.978-241.25-129.7-368.176-132.596v26.916c68.536 33.578 128 94.74 128 164.636 0 9.754-0.758 19.33-2.164 28.696-115.796 76.264-189.836 192.754-189.836 323.304 0 229.75 229.23 416 512 416z" />
<glyph unicode="&#xe915;" glyph-name="phone" d="M704 256c-64-64-64-128-128-128s-128 64-192 128-128 128-128 192 64 64 128 128-128 256-192 256-192-192-192-192c0-128 131.5-387.5 256-512s384-256 512-256c0 0 192 128 192 192s-192 256-256 192z" />
<glyph unicode="&#xe916;" glyph-name="email" d="M1024 490.286v-453.714q0-37.714-26.857-64.571t-64.571-26.857h-841.143q-37.714 0-64.571 26.857t-26.857 64.571v453.714q25.143-28 57.714-49.714 206.857-140.571 284-197.143 32.571-24 52.857-37.429t54-27.429 62.857-14h1.143q29.143 0 62.857 14t54 27.429 52.857 37.429q97.143 70.286 284.571 197.143 32.571 22.286 57.143 49.714zM1024 658.286q0-45.143-28-86.286t-69.714-70.286q-214.857-149.143-267.429-185.714-5.714-4-24.286-17.429t-30.857-21.714-29.714-18.571-32.857-15.429-28.571-5.143h-1.143q-13.143 0-28.571 5.143t-32.857 15.429-29.714 18.571-30.857 21.714-24.286 17.429q-52 36.571-149.714 104.286t-117.143 81.429q-35.429 24-66.857 66t-31.429 78q0 44.571 23.714 74.286t67.714 29.714h841.143q37.143 0 64.286-26.857t27.143-64.571z" />
<glyph unicode="&#xe917;" glyph-name="facebook" d="M608 704h160v192h-160c-123.514 0-224-100.486-224-224v-96h-128v-192h128v-512h192v512h160l32 192h-192v96c0 17.346 14.654 32 32 32z" />
<glyph unicode="&#xe918;" glyph-name="facebook-rev" d="M928 896h-832c-52.8 0-96-43.2-96-96v-832c0-52.8 43.2-96 96-96h416v448h-128v128h128v64c0 105.8 86.2 192 192 192h128v-128h-128c-35.2 0-64-28.8-64-64v-64h192l-32-128h-160v-448h288c52.8 0 96 43.2 96 96v832c0 52.8-43.2 96-96 96z" />
<glyph unicode="&#xe919;" glyph-name="instagram" d="M512 803.8c136.8 0 153-0.6 206.8-3 50-2.2 77-10.6 95-17.6 23.8-9.2 41-20.4 58.8-38.2 18-18 29-35 38.4-58.8 7-18 15.4-45.2 17.6-95 2.4-54 3-70.2 3-206.8s-0.6-153-3-206.8c-2.2-50-10.6-77-17.6-95-9.2-23.8-20.4-41-38.2-58.8-18-18-35-29-58.8-38.4-18-7-45.2-15.4-95-17.6-54-2.4-70.2-3-206.8-3s-153 0.6-206.8 3c-50 2.2-77 10.6-95 17.6-23.8 9.2-41 20.4-58.8 38.2-18 18-29 35-38.4 58.8-7 18-15.4 45.2-17.6 95-2.4 54-3 70.2-3 206.8s0.6 153 3 206.8c2.2 50 10.6 77 17.6 95 9.2 23.8 20.4 41 38.2 58.8 18 18 35 29 58.8 38.4 18 7 45.2 15.4 95 17.6 53.8 2.4 70 3 206.8 3zM512 896c-139 0-156.4-0.6-211-3-54.4-2.4-91.8-11.2-124.2-23.8-33.8-13.2-62.4-30.6-90.8-59.2-28.6-28.4-46-57-59.2-90.6-12.6-32.6-21.4-69.8-23.8-124.2-2.4-54.8-3-72.2-3-211.2s0.6-156.4 3-211c2.4-54.4 11.2-91.8 23.8-124.2 13.2-33.8 30.6-62.4 59.2-90.8 28.4-28.4 57-46 90.6-59 32.6-12.6 69.8-21.4 124.2-23.8 54.6-2.4 72-3 211-3s156.4 0.6 211 3c54.4 2.4 91.8 11.2 124.2 23.8 33.6 13 62.2 30.6 90.6 59s46 57 59 90.6c12.6 32.6 21.4 69.8 23.8 124.2 2.4 54.6 3 72 3 211s-0.6 156.4-3 211c-2.4 54.4-11.2 91.8-23.8 124.2-12.6 34-30 62.6-58.6 91-28.4 28.4-57 46-90.6 59-32.6 12.6-69.8 21.4-124.2 23.8-54.8 2.6-72.2 3.2-211.2 3.2v0zM512 647c-145.2 0-263-117.8-263-263s117.8-263 263-263 263 117.8 263 263c0 145.2-117.8 263-263 263zM512 213.4c-94.2 0-170.6 76.4-170.6 170.6s76.4 170.6 170.6 170.6c94.2 0 170.6-76.4 170.6-170.6s-76.4-170.6-170.6-170.6zM846.8 657.4c0-33.91-27.49-61.4-61.4-61.4s-61.4 27.49-61.4 61.4c0 33.91 27.49 61.4 61.4 61.4s61.4-27.49 61.4-61.4z" />
<glyph unicode="&#xe91a;" glyph-name="twitter" d="M1024 669.6c-37.6-16.8-78.2-28-120.6-33 43.4 26 76.6 67.2 92.4 116.2-40.6-24-85.6-41.6-133.4-51-38.4 40.8-93 66.2-153.4 66.2-116 0-210-94-210-210 0-16.4 1.8-32.4 5.4-47.8-174.6 8.8-329.4 92.4-433 219.6-18-31-28.4-67.2-28.4-105.6 0-72.8 37-137.2 93.4-174.8-34.4 1-66.8 10.6-95.2 26.2 0-0.8 0-1.8 0-2.6 0-101.8 72.4-186.8 168.6-206-17.6-4.8-36.2-7.4-55.4-7.4-13.6 0-26.6 1.4-39.6 3.8 26.8-83.4 104.4-144.2 196.2-146-72-56.4-162.4-90-261-90-17 0-33.6 1-50.2 3 93.2-59.8 203.6-94.4 322.2-94.4 386.4 0 597.8 320.2 597.8 597.8 0 9.2-0.2 18.2-0.6 27.2 41 29.4 76.6 66.4 104.8 108.6z" />
<glyph unicode="&#xe91b;" glyph-name="youtube" d="M1013.8 588.8c0 0-10 70.6-40.8 101.6-39 40.8-82.6 41-102.6 43.4-143.2 10.4-358.2 10.4-358.2 10.4h-0.4c0 0-215 0-358.2-10.4-20-2.4-63.6-2.6-102.6-43.4-30.8-31-40.6-101.6-40.6-101.6s-10.2-82.8-10.2-165.8v-77.6c0-82.8 10.2-165.8 10.2-165.8s10-70.6 40.6-101.6c39-40.8 90.2-39.4 113-43.8 82-7.8 348.2-10.2 348.2-10.2s215.2 0.4 358.4 10.6c20 2.4 63.6 2.6 102.6 43.4 30.8 31 40.8 101.6 40.8 101.6s10.2 82.8 10.2 165.8v77.6c-0.2 82.8-10.4 165.8-10.4 165.8zM406.2 251.2v287.8l276.6-144.4-276.6-143.4z" />
<glyph unicode="&#xe91c;" glyph-name="pinterest" d="M512 896c-282.4 0-512-229.6-512-512s229.6-512 512-512 512 229.6 512 512-229.6 512-512 512zM512-59.6c-45.8 0-89.8 7-131.4 19.8 18 29.4 45.2 77.8 55.2 116.2 5.4 20.8 27.6 105.4 27.6 105.4 14.4-27.6 56.8-51 101.6-51 133.8 0 230.2 123 230.2 276 0 146.6-119.6 256.2-273.4 256.2-191.4 0-293-128.6-293-268.4 0-65 34.6-146 90-171.8 8.4-4 12.8-2.2 14.8 6 1.4 6.2 9 36.2 12.4 50.4 1 4.4 0.6 8.4-3 12.8-18.4 22.2-33 63.2-33 101.2 0 97.8 74 192.6 200.2 192.6 109 0 185.2-74.2 185.2-180.4 0-120-60.6-203.2-139.4-203.2-43.6 0-76.2 36-65.6 80.2 12.6 52.8 36.8 109.6 36.8 147.6 0 34-18.2 62.4-56.2 62.4-44.6 0-80.2-46-80.2-107.8 0-39.2 13.2-65.8 13.2-65.8s-44-185.8-52-220.4c-9-38.4-5.4-92.2-1.6-127.2-165 64.4-282 224.8-282 412.8 0 245 198.6 443.6 443.6 443.6s443.6-198.6 443.6-443.6c0-245-198.6-443.6-443.6-443.6z" />
<glyph unicode="&#xe91d;" glyph-name="pinterest-rev" d="M512 827.6c-245 0-443.6-198.6-443.6-443.6 0-188 117-348.4 282-413-3.8 35-7.4 89 1.6 127.2 8 34.6 52 220.4 52 220.4s-13.2 26.6-13.2 65.8c0 61.6 35.8 107.8 80.2 107.8 37.8 0 56.2-28.4 56.2-62.4 0-38-24.2-95-36.8-147.6-10.6-44.2 22-80.2 65.6-80.2 78.8 0 139.4 83.2 139.4 203.2 0 106.2-76.4 180.4-185.2 180.4-126.2 0-200.2-94.6-200.2-192.6 0-38.2 14.6-79 33-101.2 3.6-4.4 4.2-8.2 3-12.8-3.4-14-10.8-44.2-12.4-50.4-2-8.2-6.4-9.8-14.8-6-55.4 25.8-90 106.8-90 171.8 0 140 101.6 268.4 293 268.4 153.8 0 273.4-109.6 273.4-256.2 0-152.8-96.4-276-230.2-276-45 0-87.2 23.4-101.6 51 0 0-22.2-84.6-27.6-105.4-10-38.6-37-86.8-55.2-116.2 41.6-12.8 85.6-19.8 131.4-19.8 245 0 443.6 198.6 443.6 443.6 0 245.2-198.6 443.8-443.6 443.8z" />
<glyph unicode="&#xe91e;" glyph-name="file-pdf2" d="M48.12 189.62c0 79.94 0 159.88 0 239.84 0.16 0.26 0.4 0.52 0.46 0.8 4.46 21.4 18.62 32.98 40.4 32.98 36.26 0 72.54 0 108.8 0 1.24 0 2.48 0 4.12 0 0 1.82 0 3.26 0 4.72 0 87.34-0.020 174.68 0.060 262 0 7.18 0.3 14.4 1.2 21.5 3.18 25.16 11.94 48.28 26.7 68.92 24.52 34.28 57.48 55.58 98.98 63.42 5.58 1.060 11.24 1.66 16.86 2.46 108.080 0 216.14 0 324.22 0 6.34-1.52 12.82-2.6 18.98-4.68 15.080-5.12 28.3-13.72 40.54-23.66 31.24-25.34 60.32-52.98 86.9-83.2 6.62-7.52 13.2-15.1 19.8-22.64 0.4-0.46 0.96-0.8 1.44-1.22 10.94-9.46 22.3-18.46 32.7-28.48 14.54-14 28.5-28.62 42.44-43.22 15.12-15.84 29.66-32.18 41.48-50.7 9.92-15.54 16.82-32.080 16.82-50.96-0.040-179.12-0.020-358.24-0.040-537.36 0-23.28-4.62-45.7-15.36-66.3-29.24-56.12-75.66-86.78-139.12-87.12-153.32-0.82-306.64-0.28-459.96-0.26-27.060 0-52.68 6.14-75.96 19.98-49.74 29.54-76.66 73.38-78.42 131.34-1.14 37.82-0.26 75.7-0.28 113.56 0 1.34 0 2.66 0 4.28-1.82 0-3.18 0-4.52 0-35.84 0-71.7 0-107.54 0.020-2.22 0-4.44 0.060-6.66 0.24-11.88 1.040-21.12 6.66-28.060 16.28-3.76 5.26-5.48 11.3-6.98 17.46zM279.060 155.62c-0.060-1.4-0.16-2.32-0.16-3.26 0-35.96-0.040-71.9 0.040-107.86 0-4.42 0.2-8.92 0.98-13.26 6.8-37.88 38.22-64.3 76.72-64.32 153.22-0.060 306.44-0.040 459.66 0 15 0 29.12 3.64 41.72 11.94 24.16 15.94 36.060 38.54 36.040 67.52-0.040 164.86-0.020 329.7-0.020 494.56 0 2.44 0.020 4.88-0.18 7.3-0.96 11.8-6.060 21.28-17.080 26.2-6.36 2.84-13.34 5-20.22 5.8-11.5 1.36-23.18 1.86-34.78 1.94-40.7 0.24-81.42 0-122.12 0.24-12 0.080-22.24 4.74-29.4 14.8-5.28 7.44-6.84 15.94-6.84 24.92 0.060 35.84 0.12 71.7-0.020 107.54-0.060 13-0.4 26-1.18 38.98-0.6 9.94-2.66 19.74-8.34 28.22-4.62 6.92-10.72 12.42-19.48 12.44-92.52 0.14-185.060 0.1-277.58 0.020-5.26 0-10.6-0.44-15.74-1.48-37.040-7.58-62.12-38.44-62.14-76.46-0.060-88.18-0.020-176.38-0.020-264.56 0-1.12 0.12-2.24 0.18-3.6 1.78 0 3.24 0 4.7 0 138.42 0 276.84 0 415.26 0 1.26 0 2.54 0.020 3.8-0.020 20.9-0.74 37.38-17.32 37.4-38.24 0.12-76.98 0.060-153.96 0.020-230.94 0-7.8-2.32-15-6.72-21.42-8.22-11.96-19.82-17.020-34.16-17-138.42 0.060-276.84 0.040-415.26 0.040-1.58-0.040-3.16-0.040-5.080-0.040zM322.060 424.84c-6.32-5.060-4.8-11.68-4.8-17.88-0.020-67.46-0.020-134.92-0.020-202.38 0-8.42 2.32-11.56 10.58-12.36 9.76-0.94 19.6-1.44 29.4-1.64 21.8-0.46 43.46 0.54 64.78 5.96 29.4 7.48 51.44 24.12 65.58 51.060 8.98 17.12 13.26 35.46 14.4 54.66 1.24 20.9-0.62 41.4-7.94 61.12-8.58 23.080-23.3 40.64-46.44 50.42-15.96 6.76-32.74 10.020-49.92 10.46-24.84 0.64-49.68 0.46-74.52 0.62-0.62 0-1.24-0.060-1.1-0.040zM182.68 270.98c2.68 0 4.88-0.020 7.1 0 10.38 0.12 20.68 1.040 30.74 3.7 16.22 4.28 31.020 11.42 40.78 25.5 13.78 19.88 19.38 42.34 16.28 66.36-2.82 21.88-14.62 37.76-34.94 47.14-14.6 6.72-29.9 10.4-45.9 10.88-20.8 0.64-41.64 1.54-62.3-2.060-5.64-0.98-9.44-5.36-9.44-11.14-0.020-70.42-0.020-140.84 0.020-211.26 0-1 0.2-2.1 0.66-3 1.080-2.14 2.36-4.18 3.7-6.54 0.46-0.020 1.28-0.1 2.12-0.1 14.060 0 28.12-0.020 42.18 0 6.44 0.020 9 2.62 9 9.060 0 22.42 0 44.84 0 67.24 0 1.28 0 2.52 0 4.22zM602.24 332.38c0 12.92 0 25.44 0 38.36 1.3 0 2.44 0 3.58 0 7.4 0 14.8 0 22.2 0 13.22 0 26.44 0.26 39.66-0.1 6.66-0.18 11.64 4.28 11.38 11.2-0.44 11.5-0.1 23.040-0.14 34.58 0 4.44-2.14 7.12-6.46 8.1-1.42 0.32-2.94 0.38-4.4 0.38-37.96 0.020-75.92 0.020-113.88 0.020-0.74 0-1.48 0.020-2.22-0.020-4.54-0.3-7.14-2.82-7.58-7.38-0.1-0.94-0.060-1.9-0.060-2.86 0-71.38 0-142.76 0-214.14 0-0.74-0.020-1.48 0.020-2.22 0.32-4.88 2.96-7.7 7.84-7.76 13.64-0.12 27.28-0.14 40.92 0 6 0.060 9 3.44 9 9.42 0 24.74 0 49.48 0 74.24 0 1.24 0 2.48 0 4.12 1.56 0 2.8 0 4.040 0 19.66 0 39.34 0 59 0 6.66 0 10.34 3.72 10.34 10.42 0.020 11.2 0 22.42 0 33.62 0 6.78-3.24 10.020-10.1 10.040-14.48 0.020-28.98 0-43.46 0-6.48-0.020-12.92-0.020-19.68-0.020zM371.54 239.22c0 45.44 0 90.020 0 134.56 0.22 0.18 0.38 0.4 0.54 0.4 13.5 0.16 27.060 1.14 40.040-4.080 14.44-5.82 22.32-16.78 24.9-31.82 1.52-8.84 0.8-17.64-0.34-26.5-0.9-7-0.86-14.12-1.56-21.16-1.46-14.58-6.58-27.56-16.9-38.34-6.16-6.42-13.8-9.76-22.26-11-7.92-1.16-15.96-1.4-24.42-2.060zM179.22 321.62c0 17.76 0 35.040 0 52.68 9.32-0.080 18.52 0.84 27.4-2.18 8-2.7 11.9-8.16 11.46-16.16-0.24-4.42-0.62-8.88-1.58-13.18-2.84-12.6-12.84-20.44-26.62-21.14-3.46-0.18-6.94-0.020-10.66-0.020z" />
<glyph unicode="&#xe91f;" glyph-name="file-pdf" d="M842.012 306.52c-13.648 13.446-43.914 20.566-89.972 21.172-31.178 0.344-68.702-2.402-108.17-7.928-17.674 10.198-35.892 21.294-50.188 34.658-38.462 35.916-70.568 85.772-90.576 140.594 1.304 5.12 2.414 9.62 3.448 14.212 0 0 21.666 123.060 15.932 164.666-0.792 5.706-1.276 7.362-2.808 11.796l-1.882 4.834c-5.894 13.592-17.448 27.994-35.564 27.208l-10.916 0.344c-20.202 0-36.664-10.332-40.986-25.774-13.138-48.434 0.418-120.892 24.98-214.738l-6.288-15.286c-17.588-42.876-39.63-86.060-59.078-124.158l-2.528-4.954c-20.46-40.040-39.026-74.028-55.856-102.822l-17.376-9.188c-1.264-0.668-31.044-16.418-38.028-20.644-59.256-35.38-98.524-75.542-105.038-107.416-2.072-10.17-0.53-23.186 10.014-29.212l16.806-8.458c7.292-3.652 14.978-5.502 22.854-5.502 42.206 0 91.202 52.572 158.698 170.366 77.93 25.37 166.652 46.458 244.412 58.090 59.258-33.368 132.142-56.544 178.142-56.544 8.168 0 15.212 0.78 20.932 2.294 8.822 2.336 16.258 7.368 20.792 14.194 8.926 13.432 10.734 31.932 8.312 50.876-0.72 5.622-5.21 12.574-10.068 17.32zM211.646 81.952c7.698 21.042 38.16 62.644 83.206 99.556 2.832 2.296 9.808 8.832 16.194 14.902-47.104-75.124-78.648-105.066-99.4-114.458zM478.434 696.314c13.566 0 21.284-34.194 21.924-66.254s-6.858-54.56-16.158-71.208c-7.702 24.648-11.426 63.5-11.426 88.904 0 0-0.566 48.558 5.66 48.558v0zM398.852 258.506c9.45 16.916 19.282 34.756 29.33 53.678 24.492 46.316 39.958 82.556 51.478 112.346 22.91-41.684 51.444-77.12 84.984-105.512 4.186-3.542 8.62-7.102 13.276-10.65-68.21-13.496-127.164-29.91-179.068-49.862v0zM828.902 262.348c-4.152-2.598-16.052-4.1-23.708-4.1-24.708 0-55.272 11.294-98.126 29.666 16.468 1.218 31.562 1.838 45.102 1.838 24.782 0 32.12 0.108 56.35-6.072 24.228-6.18 24.538-18.734 20.382-21.332v0zM917.806 666.924c-22.21 30.292-53.174 65.7-87.178 99.704s-69.412 64.964-99.704 87.178c-51.574 37.82-76.592 42.194-90.924 42.194h-496c-44.112 0-80-35.888-80-80v-864c0-44.112 35.886-80 80-80h736c44.112 0 80 35.888 80 80v624c0 14.332-4.372 39.35-42.194 90.924v0zM785.374 721.374c30.7-30.7 54.8-58.398 72.58-81.374h-153.954v153.946c22.982-17.78 50.678-41.878 81.374-72.572v0zM896-48c0-8.672-7.328-16-16-16h-736c-8.672 0-16 7.328-16 16v864c0 8.672 7.328 16 16 16 0 0 495.956 0.002 496 0v-224c0-17.672 14.324-32 32-32h224v-624z" />
<glyph unicode="&#xe920;" glyph-name="file-word" d="M639.778 420.108h44.21l-51.012-226.178-66.324 318.010h-106.55l-77.114-318.010-57.816 318.010h-111.394l113.092-511.88h108.838l76.294 302.708 68.256-302.708h100.336l129.628 511.88h-170.446v-91.832zM917.806 666.924c-22.21 30.292-53.174 65.7-87.178 99.704s-69.412 64.964-99.704 87.178c-51.574 37.82-76.592 42.194-90.924 42.194h-496c-44.112 0-80-35.888-80-80v-864c0-44.112 35.886-80 80-80h736c44.112 0 80 35.888 80 80v624c0 14.332-4.372 39.35-42.194 90.924v0zM785.374 721.374c30.7-30.7 54.8-58.398 72.58-81.374h-153.954v153.946c22.982-17.78 50.678-41.878 81.374-72.572v0zM896-48c0-8.672-7.328-16-16-16h-736c-8.672 0-16 7.328-16 16v864c0 8.672 7.328 16 16 16 0 0 495.956 0.002 496 0v-224c0-17.672 14.324-32 32-32h224v-624z" />
<glyph unicode="&#xe921;" glyph-name="file-excel" d="M743.028 512h-135.292l-95.732-141.032-95.742 141.032h-135.29l162.162-242.464-182.972-269.536h251.838v91.576h-50.156l50.156 74.994 111.396-166.57h140.444l-182.976 269.536 162.164 242.464zM917.806 666.924c-22.21 30.292-53.174 65.7-87.178 99.704s-69.412 64.964-99.704 87.178c-51.574 37.82-76.592 42.194-90.924 42.194h-496c-44.112 0-80-35.888-80-80v-864c0-44.112 35.886-80 80-80h736c44.112 0 80 35.888 80 80v624c0 14.332-4.372 39.35-42.194 90.924v0zM785.374 721.374c30.7-30.7 54.8-58.398 72.58-81.374h-153.954v153.946c22.982-17.78 50.678-41.878 81.374-72.572v0zM896-48c0-8.672-7.328-16-16-16h-736c-8.672 0-16 7.328-16 16v864c0 8.672 7.328 16 16 16 0 0 495.956 0.002 496 0v-224c0-17.672 14.324-32 32-32h224v-624z" />
<glyph unicode="&#xe922;" glyph-name="quote-close" d="M10 806.84c154.3 0 308.62 0 462.92 0 0-110.2 0-220.44 0-330.66-2-56.1-4-112.22-6.020-168.34-53.4-205.66-212.72-333.46-456.9-348.68 0 72.14 0 144.3 0 216.42 108.4 1.38 225.36 62.52 228.46 168.34-76.14 0-152.3 0-228.46 0 0 154.3 0 308.64 0 462.92zM551.080 806.84c152.28 0 304.62 0 456.9 0 0-116.22 0-232.48 0-348.7 0-53.56 7.36-117.7-6.020-162.32-58.76-196.14-219.16-311.56-450.9-336.66 0 72.14 0 144.3 0 216.42 114.54 1.6 222.24 58.62 228.46 168.34-76.14 0-152.3 0-228.46 0 0.020 154.3 0.020 308.64 0.020 462.92z" />
<glyph unicode="&#xe923;" glyph-name="quote-open" d="M470.92 806.84c0-72.14 0-144.3 0-216.42-149.46-3.2-230.34-91.94-228.46-246.48 76.14 0 152.3 0 228.46 0 0-128.24 0-256.52 0-384.76-152.28 0-304.62 0-456.9 0 0 116.22 0 232.48 0 348.7 0 53.56-7.36 117.7 6.020 162.32 58.8 196.22 218.92 311.5 450.88 336.64zM1012 806.84c0-72.14 0-144.3 0-216.42-142.38-3.1-231.28-96.96-228.46-246.48 76.14 0 152.3 0 228.46 0 0-128.24 0-256.52 0-384.76-154.3 0-308.62 0-462.92 0 0 110.2 0 220.44 0 330.66 2 56.1 4 112.22 6.020 168.34 53.6 206.42 211.58 333.4 456.9 348.66z" />
<glyph unicode="&#xe924;" glyph-name="circle-arrow-down" d="M1024 384c0 282.793-229.207 512-512 512s-512-229.207-512-512 229.207-512 512-512 512 229.207 512 512zM68.447 384c0 244.967 198.586 443.553 443.553 443.553s443.553-198.586 443.553-443.553-198.586-443.553-443.553-443.553c-244.967 0-443.553 198.586-443.553 443.553zM761.471 326.811c13.059 13.059 13.059 34.674 0 47.733l-3.152 3.152c-13.059 13.059-34.674 13.059-47.733 0l-163.912-166.614v436.799c0 18.463-15.31 33.773-33.773 33.773h-4.503c-18.463 0-33.773-15.31-33.773-33.773v-437.699l-164.813 164.813c-13.059 13.059-34.674 13.059-47.733 0l-3.152-3.152c-13.059-13.059-13.059-34.674 0-47.733l227.405-227.405c6.755-6.755 15.761-9.907 24.767-9.907 9.006-0.45 18.012 3.152 24.767 9.907l225.604 230.107z" />
<glyph unicode="&#xe925;" glyph-name="circle-arrow-left" d="M0 384c0-282.793 229.207-512 512-512s512 229.207 512 512-229.207 512-512 512c-282.793 0-512-229.207-512-512zM68.447 384c0 244.967 198.586 443.553 443.553 443.553s443.553-198.586 443.553-443.553c0-244.967-198.586-443.553-443.553-443.553s-443.553 198.586-443.553 443.553zM454.811 633.471c13.059 13.059 34.674 13.059 47.733 0l3.152-3.152c13.059-13.059 13.059-34.674 0-47.733l-166.614-163.912h436.799c18.463 0 33.773-15.31 33.773-33.773v-4.503c0-18.463-15.31-33.773-33.773-33.773h-438.15l164.813-164.813c13.059-13.059 13.059-34.674 0-47.733l-3.152-3.152c-13.059-13.059-34.674-13.059-47.733 0l-227.405 227.405c-6.755 6.755-9.907 15.761-9.907 24.767-0.45 9.006 3.152 18.012 9.907 24.767l230.558 225.604z" />
<glyph unicode="&#xe926;" glyph-name="circle-arrow-right" d="M512 896c-282.793 0-512-229.207-512-512s229.207-512 512-512 512 229.207 512 512-229.207 512-512 512zM512-59.553c-244.967 0-443.553 198.586-443.553 443.553s198.586 443.553 443.553 443.553 443.553-198.586 443.553-443.553c0-244.967-198.586-443.553-443.553-443.553zM569.189 633.471c-13.059 13.059-34.674 13.059-47.733 0l-3.152-3.152c-13.059-13.059-13.059-34.674 0-47.733l166.614-163.912h-436.799c-18.463 0-33.773-15.31-33.773-33.773v-4.503c0-18.463 15.31-33.773 33.773-33.773h437.699l-164.813-164.813c-13.059-13.059-13.059-34.674 0-47.733l3.152-3.152c13.059-13.059 34.674-13.059 47.733 0l227.405 227.405c6.755 6.755 9.907 15.761 9.907 24.767 0.45 9.006-3.152 18.012-9.907 24.767l-230.107 225.604z" />
<glyph unicode="&#xe927;" glyph-name="circle-arrow-up" d="M512 896c-282.793 0-512-229.207-512-512s229.207-512 512-512 512 229.207 512 512c0 282.793-229.207 512-512 512zM512 827.553c244.967 0 443.553-198.586 443.553-443.553s-198.586-443.553-443.553-443.553c-244.967 0-443.553 198.586-443.553 443.553s198.586 443.553 443.553 443.553zM761.471 441.189c13.059-13.059 13.059-34.674 0-47.733l-3.152-3.152c-13.059-13.059-34.674-13.059-47.733 0l-163.912 166.614v-436.799c0-18.463-15.31-33.773-33.773-33.773h-4.503c-18.463 0-33.773 15.31-33.773 33.773v438.15l-164.813-164.813c-13.059-13.059-34.674-13.059-47.733 0l-3.152 3.152c-13.059 13.059-13.059 34.674 0 47.733l227.405 227.405c6.755 6.755 15.761 9.907 24.767 9.907 9.006 0.45 18.012-3.152 24.767-9.907l225.604-230.558z" />
<glyph unicode="&#xe928;" glyph-name="angle-down" d="M961.714 434.286l-424-423.429q-10.857-10.857-25.714-10.857t-25.714 10.857l-424 423.429q-10.857 10.857-10.857 26t10.857 26l94.857 94.286q10.857 10.857 25.714 10.857t25.714-10.857l303.429-303.429 303.429 303.429q10.857 10.857 25.714 10.857t25.714-10.857l94.857-94.286q10.857-10.857 10.857-26t-10.857-26z" />
<glyph unicode="&#xe929;" glyph-name="angle-left" horiz-adv-x="731" d="M669.143 724l-303.429-303.429 303.429-303.429q10.857-10.857 10.857-25.714t-10.857-25.714l-94.857-94.857q-10.857-10.857-25.714-10.857t-25.714 10.857l-424 424q-10.857 10.857-10.857 25.714t10.857 25.714l424 424q10.857 10.857 25.714 10.857t25.714-10.857l94.857-94.857q10.857-10.857 10.857-25.714t-10.857-25.714z" />
<glyph unicode="&#xe92a;" glyph-name="angle-right" horiz-adv-x="731" d="M632.571 394.857l-424-424q-10.857-10.857-25.714-10.857t-25.714 10.857l-94.857 94.857q-10.857 10.857-10.857 25.714t10.857 25.714l303.429 303.429-303.429 303.429q-10.857 10.857-10.857 25.714t10.857 25.714l94.857 94.857q10.857 10.857 25.714 10.857t25.714-10.857l424-424q10.857-10.857 10.857-25.714t-10.857-25.714z" />
<glyph unicode="&#xe92b;" glyph-name="angle-up" d="M961.714 135.429l-94.857-94.286q-10.857-10.857-25.714-10.857t-25.714 10.857l-303.429 303.429-303.429-303.429q-10.857-10.857-25.714-10.857t-25.714 10.857l-94.857 94.286q-10.857 10.857-10.857 26t10.857 26l424 423.429q10.857 10.857 25.714 10.857t25.714-10.857l424-423.429q10.857-10.857 10.857-26t-10.857-26z" />
<glyph unicode="&#xe92c;" glyph-name="circle-angle-down" d="M1024 384c0 282.77-229.23 512-512 512s-512-229.23-512-512 229.23-512 512-512 512 229.23 512 512zM96 384c0 229.75 186.25 416 416 416s416-186.25 416-416-186.25-416-416-416-416 186.25-416 416zM317.256 541.256l-90.512-90.512 285.256-285.254 285.254 285.256-90.508 90.508-194.746-194.744z" />
<glyph unicode="&#xe92d;" glyph-name="circle-angle-left" d="M512-128c282.77 0 512 229.23 512 512s-229.23 512-512 512-512-229.23-512-512 229.23-512 512-512zM512 800c229.75 0 416-186.25 416-416s-186.25-416-416-416-416 186.25-416 416 186.25 416 416 416zM669.256 578.744l-90.512 90.512-285.254-285.256 285.256-285.254 90.508 90.508-194.744 194.746z" />
<glyph unicode="&#xe92e;" glyph-name="circle-angle-right" d="M512 896c-282.77 0-512-229.23-512-512s229.23-512 512-512 512 229.23 512 512-229.23 512-512 512zM512-32c-229.75 0-416 186.25-416 416s186.25 416 416 416 416-186.25 416-416-186.25-416-416-416zM354.744 189.256l90.512-90.512 285.254 285.256-285.256 285.254-90.508-90.508 194.744-194.746z" />
<glyph unicode="&#xe92f;" glyph-name="circle-angle-up" d="M0 384c0-282.77 229.23-512 512-512s512 229.23 512 512-229.23 512-512 512-512-229.23-512-512zM928 384c0-229.75-186.25-416-416-416s-416 186.25-416 416 186.25 416 416 416 416-186.25 416-416zM706.744 226.744l90.512 90.512-285.256 285.254-285.254-285.256 90.508-90.508 194.746 194.744z" />
<glyph unicode="&#xe930;" glyph-name="linkedin" d="M384 512h177.106v-90.782h2.532c24.64 44.194 84.958 90.782 174.842 90.782 186.946 0 221.52-116.376 221.52-267.734v-308.266h-184.61v273.278c0 65.184-1.334 149.026-96.028 149.026-96.148 0-110.82-70.986-110.82-144.292v-278.012h-184.542v576zM64 512h192v-576h-192v576zM256 672c0-53.019-42.981-96-96-96s-96 42.981-96 96c0 53.019 42.981 96 96 96s96-42.981 96-96z" />
</font>
</defs>
</svg>
